<svg xmlns="http://www.w3.org/2000/svg" viewBox="0 0 48 48"><defs><linearGradient id="a" x1="24" x2="24" y2="48" gradientUnits="userSpaceOnUse"><stop offset="0" stop-color="#f452ff"/><stop offset="1" stop-color="#832bc1"/></linearGradient></defs><path d="M5.05 42.95C1.365 39.268 0 33.268 0 24S1.366 8.732 5.05 5.05 14.732 0 24 0s15.267 1.366 18.95 5.05S48 14.732 48 24s-1.366 15.268-5.05 18.95S33.268 48 24 48 8.732 46.634 5.05 42.95z" fill="url(#a)"/><path d="M27.497 27.734a4.845 4.845 0 00-3.504-1.257 4.836 4.836 0 00-3.504 1.257 2.225 2.225 0 00-.64 1.392 18.064 18.064 0 00.077 3.657c.125 1.481.365 3.456.678 5.47a20.953 20.953 0 00.568 2.759 2.736 2.736 0 002.821 1.682 2.735 2.735 0 002.822-1.682 20.791 20.791 0 00.567-2.759 83.06 83.06 0 00.678-5.47 18.244 18.244 0 00.08-3.657 2.216 2.216 0 00-.643-1.392zm-7.454-6.816A3.957 3.957 0 1024 16.961a3.957 3.957 0 00-3.957 3.957zM23.95 5.306a16.999 16.999 0 00-5.576 33.04.229.229 0 00.302-.248c-.088-.58-.17-1.166-.246-1.742a.581.581 0 00-.343-.46 14.825 14.825 0 1111.828 0 .581.581 0 00-.343.46c-.076.574-.158 1.159-.247 1.74a.228.228 0 00.303.248A16.998 16.998 0 0023.95 5.306zm-.309 7.8a9.209 9.209 0 016.665 15.921.71.71 0 00-.223.553 16.75 16.75 0 01-.02 1.94.225.225 0 00.35.2 11.387 11.387 0 10-12.818.001.223.223 0 00.347-.198 15.9 15.9 0 01-.019-1.943.704.704 0 00-.222-.553 9.21 9.21 0 015.94-15.92z" fill="#fff"/></svg>