<svg xmlns="http://www.w3.org/2000/svg" viewBox="0 0 48 48"><defs><linearGradient id="a" x1="5.049" y1="5.049" x2="42.951" y2="42.951" gradientUnits="userSpaceOnUse"><stop offset="0" stop-color="#ff9e57"/><stop offset="1" stop-color="#ff5321"/></linearGradient></defs><path d="M5.05 42.95C1.365 39.268 0 33.268 0 24S1.366 8.732 5.05 5.05 14.732 0 24 0s15.267 1.366 18.95 5.05S48 14.732 48 24s-1.366 15.268-5.05 18.95S33.268 48 24 48 8.732 46.634 5.05 42.95z" fill="url(#a)"/><path d="M27.994 17.79v10.293a1.5 1.5 0 01-3 0v-2.904a1.02 1.02 0 00-1.99.043H23v2.68a1.5 1.5 0 01-3 0v-3.64a1.021 1.021 0 00-2 0v7.224a1.5 1.5 0 01-3 0v-5.305a.92.92 0 00-1-.814.92.92 0 00-1 .815v.389a1.5 1.5 0 11-3 0v-4.635a1.5 1.5 0 113 0v.39a.92.92 0 001 .814.92.92 0 001-.815v-3.34a1.5 1.5 0 013 0v1.412a1.021 1.021 0 002 0v-3.893a1.5 1.5 0 013 0v4.861h.004a1.02 1.02 0 001.99.043V17.79a1.5 1.5 0 013 0zm3.506 2.516a1.488 1.488 0 00-1.5 1.476v5.884a1.5 1.5 0 003 0v-5.884a1.488 1.488 0 00-1.5-1.476zm5 2.988a1.488 1.488 0 00-1.5 1.475v1.467a1.5 1.5 0 003 0v-1.467a1.488 1.488 0 00-1.5-1.475z" fill="#fff"/></svg>