<svg xmlns="http://www.w3.org/2000/svg" xmlns:xlink="http://www.w3.org/1999/xlink" viewBox="0 0 48 48"><defs><linearGradient id="a" x1="24" x2="24" y2="48" gradientUnits="userSpaceOnUse"><stop offset="0" stop-color="#00ccbf"/><stop offset="1" stop-color="#00b265"/></linearGradient><linearGradient id="b" x1="-270.7441" y1="271.0371" x2="-270.7441" y2="270.9944" gradientTransform="matrix(891, 0, 0, -890.125, 241257, 241261.875)" gradientUnits="userSpaceOnUse"><stop offset="0" stop-color="#151515"/><stop offset="1" stop-color="#353535"/></linearGradient><linearGradient id="c" x1="-270.8424" y1="271.2696" x2="-270.8424" y2="271.2269" gradientTransform="matrix(633.152, 0, 0, -572.607, 171508.3439, 155341.2905)" gradientUnits="userSpaceOnUse"><stop offset="0.3" stop-color="#fff"/><stop offset="1" stop-color="#9cc0b7"/></linearGradient></defs><title>icon-castro</title><path d="M5.0494,42.9506C1.3663,39.2675,0,33.2675,0,24S1.3663,8.7325,5.0494,5.0494,14.7325,0,24,0,39.2675,1.3663,42.9506,5.0494,48,14.7325,48,24s-1.3663,15.2675-5.0494,18.9506S33.2675,48,24,48,8.7325,46.6337,5.0494,42.9506Z" fill="url(#a)"/><path d="M24,5.0029a19,19,0,1,1-19,19A19,19,0,0,1,24,5.0029Z" fill="url(#b)"/><path d="M31.9059,34.8382,28.72,30.42a8.05,8.05,0,1,0-9.4725.0192L16.06,34.8608a13.5016,13.5016,0,1,1,15.8461-.0226Zm-7.9086-14.179a3.2481,3.2481,0,1,1-3.2482,3.2481A3.2481,3.2481,0,0,1,23.9973,20.6592Z" fill="url(#c)"/></svg>