<svg xmlns="http://www.w3.org/2000/svg" viewBox="0 0 48 48"><style>.pill{fill:none;stroke-width:4;stroke-linecap:round}</style><path stroke="#e5e5e5" fill="#fff" d="M5.05 42.95C1.365 39.268 0 33.268 0 24S1.366 8.732 5.05 5.05 14.732 0 24 0s15.267 1.366 18.95 5.05S48 14.732 48 24s-1.366 15.268-5.05 18.95S33.268 48 24 48 8.732 46.634 5.05 42.95z"/><path stroke="#fab908" class="pill" d="M24 10.25v2M24 35.75v2M24 18.25v11.5"/><path stroke="#ea4335" class="pill" d="M17 16.5v7M17 29.5v2"/><path stroke="#34a853" class="pill" d="M31 24.5v7M31 18.5v-2"/><path stroke="#4285f4" class="pill" d="M38 23v2"/><path stroke="#0066d9" class="pill" d="M10 23v2"/></svg>