<svg xmlns="http://www.w3.org/2000/svg" xmlns:xlink="http://www.w3.org/1999/xlink" viewBox="0 0 48 48"><defs><linearGradient id="a" y1="24" x2="48" y2="24" gradientUnits="userSpaceOnUse"><stop offset="0" stop-color="#c90025"/><stop offset="1" stop-color="#aa001f"/></linearGradient></defs><title>icon-iheartradio</title><path d="M5.0494,42.9506C1.3663,39.2675,0,33.2675,0,24S1.3663,8.7325,5.0494,5.0494,14.7325,0,24,0,39.2675,1.3663,42.9506,5.0494,48,14.7325,48,24s-1.3663,15.2675-5.0494,18.9506S33.2675,48,24,48,8.7325,46.6337,5.0494,42.9506Z" fill="url(#a)"/><path d="M32.9273,9.5766a10.757,10.757,0,0,0-8.8982,4.8162,10.79,10.79,0,0,0-8.8982-4.8162A10.6281,10.6281,0,0,0,4.5,20.2074c0,3.73,2.3494,6.4021,4.8162,8.8983L18.9486,38.21a.7855.7855,0,0,0,1.3215-.5874V30.5153a3.73,3.73,0,0,1,7.4593,0v7.1068a.7855.7855,0,0,0,1.3215.5874l9.6324-9.1038C41.15,26.61,43.5,23.9371,43.5,20.2074A10.541,10.541,0,0,0,32.9273,9.5766Zm-18.56,18.8243a.6942.6942,0,0,1-.5579.2349A.7974.7974,0,0,1,13.31,28.46c-3.1716-2.8192-4.7868-5.7559-4.7868-8.722v-.0293a8.6167,8.6167,0,0,1,3.6415-6.7838.7455.7455,0,0,1,.7929,1.2628,7.0991,7.0991,0,0,0-2.9367,5.521v.0294c0,2.5255,1.439,5.11,4.2876,7.6354a.688.688,0,0,1,.0587,1.0278ZM19.1248,25.67a.7652.7652,0,0,1-.6461.3818.7827.7827,0,0,1-.3524-.0881,7.0711,7.0711,0,0,1-3.6121-5.9028v-.0293a5.9687,5.9687,0,0,1,3.1716-5.2568.7421.7421,0,1,1,.6754,1.3216,4.4754,4.4754,0,0,0-2.4081,3.9645,5.4772,5.4772,0,0,0,2.8486,4.6106.7207.7207,0,0,1,.3231.9985Zm4.9043-1.88a3.201,3.201,0,1,1,3.201-3.201A3.2085,3.2085,0,0,1,24.0291,23.79Zm5.9028,2.1732a.7827.7827,0,0,1-.3524.0881.7652.7652,0,0,1-.6461-.3818.7342.7342,0,0,1,.2937-.9985,5.5538,5.5538,0,0,0,2.8486-4.6106,4.4537,4.4537,0,0,0-2.4081-3.9645.7421.7421,0,0,1,.6754-1.3216,5.9125,5.9125,0,0,1,3.1716,5.2568v.0293a6.915,6.915,0,0,1-3.5827,5.9028Zm9.5736-6.2258c0,2.966-1.6151,5.9028-4.7868,8.722a.7869.7869,0,0,1-1.0572-.0588A.7371.7371,0,0,1,33.72,27.373c2.8487-2.5256,4.2876-5.0805,4.2876-7.6355v-.0293a7.0988,7.0988,0,0,0-2.9367-5.521.7455.7455,0,0,1,.7929-1.2628,8.61,8.61,0,0,1,3.6416,6.7837v.0294Z" fill="#fff"/></svg>