<svg xmlns="http://www.w3.org/2000/svg" viewBox="0 0 48 48"><path d="M5.05 42.95C1.365 39.268 0 33.268 0 24S1.366 8.732 5.05 5.05 14.732 0 24 0s15.267 1.366 18.95 5.05S48 14.732 48 24s-1.366 15.268-5.05 18.95S33.268 48 24 48 8.732 46.634 5.05 42.95z" fill="#fff" stroke="#e5e5e5" stroke-miterlimit="10"/><circle cx="24" cy="24" r="21" fill="#bd1c24"/><path d="M34.595 26.864a10.976 10.976 0 11-13.459-13.46" fill="none" stroke="#fff" stroke-linecap="round" stroke-miterlimit="10" stroke-width="6"/><path d="M28.057 9.28A16.382 16.382 0 0138.68 19.954M27.293 13.386a12.106 12.106 0 017.16 7.35M26.52 17.614a7.492 7.492 0 013.837 3.876" fill="none" stroke="#fff" stroke-linecap="round" stroke-miterlimit="10" stroke-width="2.5"/></svg>