<svg xmlns="http://www.w3.org/2000/svg" xmlns:xlink="http://www.w3.org/1999/xlink" viewBox="0 0 48 48"><path fill="#252027" d="M5.05,42.95C1.37,39.27,0,33.27,0,24S1.37,8.73,5.05,5.05C8.73,1.37,14.73,0,24,0s15.27,1.37,18.95,5.05c3.68,3.68,5.05,9.68,5.05,18.95s-1.37,15.27-5.05,18.95c-3.68,3.68-9.68,5.05-18.95,5.05s-15.27-1.37-18.95-5.05Z"/><circle fill="#8dc742" cx="24" cy="33.19" r="7.56"/><path fill="#8dc742" d="M39.8,21.01c-3.46-5.45-9.38-8.71-15.83-8.71s-12.37,3.25-15.83,8.71c-.7,1.1-2.16,1.43-3.27,.73-1.1-.7-1.43-2.16-.73-3.27C8.47,11.65,15.88,7.58,23.97,7.58s15.5,4.08,19.83,10.9c.7,1.1,.37,2.57-.73,3.27-1.19,.75-2.62,.29-3.27-.73Z"/><path fill="#8dc742" d="M34.41,26.71c-.78,0-1.55-.39-2-1.09-1.84-2.87-4.98-4.58-8.39-4.58s-6.55,1.71-8.39,4.58c-.71,1.1-2.18,1.42-3.28,.71s-1.42-2.18-.71-3.28c2.72-4.24,7.35-6.76,12.39-6.76s9.67,2.53,12.39,6.76c.71,1.1,.39,2.57-.71,3.28-.4,.26-.84,.38-1.28,.38Z"/><circle fill="#fff" cx="24" cy="33.19" r="3.96"/></svg>