<svg xmlns="http://www.w3.org/2000/svg" xmlns:xlink="http://www.w3.org/1999/xlink" viewBox="0 0 48 48"><path fill="#5c85dd" d="M5.05,42.95C1.37,39.27,0,33.27,0,24S1.37,8.73,5.05,5.05C8.73,1.37,14.73,0,24,0s15.27,1.37,18.95,5.05c3.68,3.68,5.05,9.68,5.05,18.95s-1.37,15.27-5.05,18.95c-3.68,3.68-9.68,5.05-18.95,5.05s-15.27-1.37-18.95-5.05Z"/><path fill="#fff" d="M42.11,24.16c0,1.14-.1,2.31-.29,3.51-.25,1.14-.61,2.25-1.1,3.33-.43,1.08-.97,2.1-1.64,3.06-.67,.96-1.42,1.89-2.27,2.78l-2.6-2.54c.73-.72,1.33-1.47,1.82-2.24,.55-.78,1-1.59,1.37-2.43,.37-.9,.64-1.8,.83-2.7,.19-.96,.28-1.89,.29-2.79,0-1.02-.05-1.98-.16-2.89-.17-.96-.44-1.87-.8-2.71-.36-.9-.8-1.75-1.34-2.53-.54-.78-1.16-1.48-1.88-2.08l2.63-2.6c.84,.85,1.58,1.75,2.24,2.72,.66,1.03,1.19,2.08,1.6,3.17,.47,1.08,.83,2.2,1.06,3.34,.17,1.2,.26,2.41,.25,3.61m-8.03-15.1l-2.54,2.6c-.54-.36-1.11-.67-1.71-.91l-1.8-.64c-.6-.18-1.23-.31-1.89-.37l-1.98-.1c-1.98-.01-3.85,.34-5.6,1.05-1.75,.71-3.29,1.72-4.62,3.04-1.27,1.32-2.3,2.84-3.09,4.58-.79,1.74-1.19,3.63-1.2,5.67s.37,3.85,1.14,5.6c.77,1.75,1.78,3.29,3.04,4.62,1.32,1.27,2.84,2.3,4.58,3.09,1.74,.79,3.6,1.19,5.58,1.2l1.98-.17c.66-.06,1.29-.17,1.9-.35l1.81-.71,1.72-.8,2.51,2.63c-.72,.48-1.48,.89-2.26,1.25l-2.44,.98c-.78,.24-1.63,.41-2.53,.53-.9,.18-1.8,.26-2.71,.25-2.46-.01-4.78-.51-6.93-1.48-2.22-.97-4.13-2.28-5.75-3.91s-2.89-3.56-3.84-5.79c-.95-2.17-1.42-4.49-1.4-6.95s.51-4.9,1.48-7.11c.97-2.16,2.28-4.04,3.91-5.66,1.63-1.61,3.56-2.89,5.79-3.84,2.17-.89,4.49-1.33,6.95-1.31l2.7,.2c.9,.13,1.74,.31,2.52,.56,.84,.25,1.65,.55,2.43,.92,.78,.37,1.53,.82,2.25,1.37m-2.22,16.21l-10.16,5.86c-.3,.18-.62,.23-.97,.18-.35-.06-.64-.22-.86-.48-.22-.27-.34-.58-.34-.94v-11.76c.01-.34,.13-.65,.35-.92,.22-.26,.51-.43,.85-.5,.35-.06,.68,0,.98,.18l10.16,5.88c.29,.18,.5,.42,.61,.75,.13,.33,.13,.66,0,.99-.12,.33-.33,.58-.63,.76"/></svg>