<svg xmlns="http://www.w3.org/2000/svg" xmlns:xlink="http://www.w3.org/1999/xlink" viewBox="0 0 48 48"><defs><linearGradient id="a" x1="294.7" y1="-526.7" x2="324.9643" y2="-556.9643" gradientTransform="matrix(1, 0, 0, -1, -282, -514)" gradientUnits="userSpaceOnUse"><stop offset="0" stop-color="#df4123"/><stop offset="1" stop-color="#f17a2b"/></linearGradient></defs><title>icon-PodcastAddict</title><path d="M5,43c-3.7-3.7-5-9.7-5-19S1.4,8.7,5,5s9.7-5,19-5S39.3,1.4,43,5c3.7,3.7,5,9.7,5,19s-1.4,15.3-5,19c-3.7,3.7-9.7,5-19,5S8.7,46.6,5,43Z" fill="#ff7e00" fill-rule="evenodd"/><path d="M43,43c3.5-3.5,4.9-9.1,5-17.6L35.3,12.7A15.9806,15.9806,0,0,0,12.7,35.3L25.4,48C33.9,47.9,39.5,46.4,43,43Z" fill="url(#a)"/><path d="M24,8a15.9792,15.9792,0,0,0-7.5,30.1V24a7.4169,7.4169,0,0,1,6-7.3v2.6A5.0175,5.0175,0,0,0,24,29.1a5.1744,5.1744,0,0,0,4.8-3.5h2.6a7.4989,7.4989,0,0,1-7.3,6,7.3922,7.3922,0,0,1-5-1.9v9.6a16.8694,16.8694,0,0,0,5,.8,15.73,15.73,0,0,0,9-2.8V40h7V24A16.1985,16.1985,0,0,0,24,8Zm0,19a3,3,0,1,1,3-3A2.9465,2.9465,0,0,1,24,27Zm5-3a4.9514,4.9514,0,0,0-5-5V16.5A7.5546,7.5546,0,0,1,31.5,24Zm4.5,0A9.56,9.56,0,0,0,24,14.5V12A12.0353,12.0353,0,0,1,36,24Z" fill="#fff"/></svg>