<svg xmlns="http://www.w3.org/2000/svg" viewBox="0 0 48 48"><path d="M5.05 42.95C1.365 39.268 0 33.268 0 24S1.366 8.732 5.05 5.05 14.732 0 24 0s15.267 1.366 18.95 5.05S48 14.732 48 24s-1.366 15.268-5.05 18.95S33.268 48 24 48 8.732 46.634 5.05 42.95z" fill="#cf2327"/><path d="M29.412 20.174a3.154 3.154 0 011.018-.166c.272.06.34.397.306.634.012 1.053 0 2.106.006 3.16a.946.946 0 01-.23.792c-.267.319-.72.281-1.085.367-.037-1.595-.012-3.191-.015-4.787zM17.255 16.28a2.684 2.684 0 011.33-.149 1.985 1.985 0 01.134.925c0 .839.015 1.677-.008 2.516a.896.896 0 01-.483.758 4.667 4.667 0 01-.944.23c-.051-1.427-.003-2.854-.03-4.28zm.89-2.874a25.239 25.239 0 01-3.9.72q-.033.755-.023 1.512c.015 5.212-.014 10.424.014 15.637a17.9 17.9 0 003.035-.525q-.02-3.657-.003-7.315a3.957 3.957 0 011.146-.202c.281.116.31.463.298.726.028 1.79-.019 3.582.013 5.373a2.3 2.3 0 00.245 1.055 14.669 14.669 0 013.1-.52 3.207 3.207 0 01-.246-1.112c-.025-1.904.007-3.809-.008-5.713a3.131 3.131 0 00-.247-1.41 1.882 1.882 0 00-1.01-.835 3.262 3.262 0 00.816-.82 3.865 3.865 0 00.51-2.36 12.613 12.613 0 00-.228-3.282 1.72 1.72 0 00-1.066-1.122 4.51 4.51 0 00-2.446.194zm12.67 3.775a38.555 38.555 0 01-4.437.89c-.014 5.694-.002 11.39-.005 17.084l-.005.056c1.017-.111 2.017-.33 3.021-.52.058-2.305-.01-4.612.03-6.919a12.469 12.469 0 002.225-.567 3.421 3.421 0 001.497-1.107 3.896 3.896 0 00.67-1.944c.064-1.16.009-2.32.03-3.481a7.947 7.947 0 00-.197-2.348 1.85 1.85 0 00-.763-1.028 3.13 3.13 0 00-2.066-.116zM22.49 8.156a8.086 8.086 0 013.877.737c.018 1.547-.004 3.095.008 4.643 2.677-.29 5.232-1.298 7.928-1.459a7.806 7.806 0 014.101.764q-.03 13.135-.003 26.27a8.901 8.901 0 00-5.047-.676c-2.474.335-4.852 1.225-7.353 1.393a8.268 8.268 0 01-4.178-.73c-.018-1.547.003-3.094-.007-4.642-2.26.227-4.425.983-6.668 1.311a9.731 9.731 0 01-4.402-.161c-.388-.097-.749-.272-1.124-.405q-.02-.786-.017-1.57c.011-8.233-.013-16.467.012-24.7q.354.113.698.257a9.485 9.485 0 003.883.435c2.8-.273 5.467-1.367 8.292-1.467z" fill="#fff"/><path d="M21.816 34.456a11.676 11.676 0 012.852.23 10.938 10.938 0 011.7.526l-.005.064a1.323 1.323 0 01-.215.503 8.053 8.053 0 01-1.966 1.851 20.276 20.276 0 01-2.359 1.468c-.017-1.527-.008-3.114-.007-4.642z" fill="#d2d3d5"/></svg>