<svg xmlns="http://www.w3.org/2000/svg" viewBox="0 0 48 48"><defs><linearGradient id="a" x1="24" x2="24" y2="48" gradientUnits="userSpaceOnUse"><stop offset="0" stop-color="#fa9c39"/><stop offset="1" stop-color="#e26c2d"/></linearGradient></defs><path d="M5.05 42.95C1.365 39.268 0 33.268 0 24S1.366 8.732 5.05 5.05 14.732 0 24 0s15.267 1.366 18.95 5.05S48 14.732 48 24s-1.366 15.268-5.05 18.95S33.268 48 24 48 8.732 46.634 5.05 42.95z" fill="url(#a)"/><path d="M9 35c0-2.21.03-4 4-4s4 1.79 4 4-.03 4-4 4-4-1.79-4-4zm3-26c-2.977 0-3 1.343-3 3s.023 3 3 3c12.56 0 21 8.44 21 21 0 1.657.023 3 3 3s3-1.343 3-3C39 20.103 27.898 9 12 9zm0 10c-2.977 0-3 1.343-3 3s.023 3 3 3c3.308 0 11 1.072 11 11 0 1.657.023 3 3 3s3-1.343 3-3c0-12.548-9.158-17-17-17z" fill="#fff"/></svg>