<svg xmlns="http://www.w3.org/2000/svg" viewBox="0 0 48 48"><style>.s{fill:none;stroke:#181413;stroke-linecap:round}</style><path fill="#181413" d="M5.05 42.95C1.365 39.268 0 33.268 0 24S1.366 8.732 5.05 5.05 14.732 0 24 0s15.267 1.366 18.95 5.05S48 14.732 48 24s-1.366 15.268-5.05 18.95S33.268 48 24 48 8.732 46.634 5.05 42.95z"/><circle fill="#1ed760" cx="24" cy="24" r="19"/><path stroke-width="2.37" class="s" d="M31.703 31.787c-4.735-2.893-10.647-3.557-17.573-1.974"/><path stroke-width="2.96" class="s" d="M33.776 26.457c-5.485-3.372-13.668-4.333-20.138-2.37"/><path stroke-width="3.55" class="s" d="M36.146 20.316c-6.588-3.912-17.217-4.276-23.496-2.37"/></svg>